<svg width="48" height="48" viewBox="0 0 48 48" fill="none" xmlns="http://www.w3.org/2000/svg">
<g filter="url(#filter0_d_38_369)">
<rect x="2" y="1" width="44" height="44" rx="8" fill="#1877F2"/>
<g clip-path="url(#clip0_38_369)">
<path d="M36 23C36 16.3726 30.6274 11 24 11C17.3726 11 12 16.3726 12 23C12 28.9895 16.3882 33.954 22.125 34.8542V26.4688H19.0781V23H22.125V20.3563C22.125 17.3488 23.9166 15.6875 26.6576 15.6875C27.9701 15.6875 29.3438 15.9219 29.3438 15.9219V18.875H27.8306C26.34 18.875 25.875 19.8001 25.875 20.75V23H29.2031L28.6711 26.4688H25.875V34.8542C31.6118 33.954 36 28.9895 36 23Z" fill="white"/>
</g>
</g>
<defs>
<filter id="filter0_d_38_369" x="0" y="0" width="48" height="48" filterUnits="userSpaceOnUse" color-interpolation-filters="sRGB">
<feFlood flood-opacity="0" result="BackgroundImageFix"/>
<feColorMatrix in="SourceAlpha" type="matrix" values="0 0 0 0 0 0 0 0 0 0 0 0 0 0 0 0 0 0 127 0" result="hardAlpha"/>
<feOffset dy="1"/>
<feGaussianBlur stdDeviation="1"/>
<feColorMatrix type="matrix" values="0 0 0 0 0.0627451 0 0 0 0 0.0941176 0 0 0 0 0.156863 0 0 0 0.05 0"/>
<feBlend mode="normal" in2="BackgroundImageFix" result="effect1_dropShadow_38_369"/>
<feBlend mode="normal" in="SourceGraphic" in2="effect1_dropShadow_38_369" result="shape"/>
</filter>
<clipPath id="clip0_38_369">
<rect width="24" height="24" fill="white" transform="translate(12 11)"/>
</clipPath>
</defs>
</svg>
