<svg width="20" height="20" viewBox="0 0 20 20" fill="none" xmlns="http://www.w3.org/2000/svg">
<g id="Input field/Passcode">
<path id="Vector" d="M9.99984 10.0002H10.004M14.1665 10.0002H14.1707M5.83317 10.0002H5.83734M4.33317 5.8335H15.6665C16.5999 5.8335 17.0667 5.8335 17.4232 6.01515C17.7368 6.17494 17.9918 6.4299 18.1515 6.74351C18.3332 7.10003 18.3332 7.56675 18.3332 8.50016V11.5002C18.3332 12.4336 18.3332 12.9003 18.1515 13.2568C17.9918 13.5704 17.7368 13.8254 17.4232 13.9852C17.0667 14.1668 16.5999 14.1668 15.6665 14.1668H4.33317C3.39975 14.1668 2.93304 14.1668 2.57652 13.9852C2.26291 13.8254 2.00795 13.5704 1.84816 13.2568C1.6665 12.9003 1.6665 12.4336 1.6665 11.5002V8.50016C1.6665 7.56675 1.6665 7.10003 1.84816 6.74351C2.00795 6.4299 2.26291 6.17494 2.57652 6.01515C2.93304 5.8335 3.39975 5.8335 4.33317 5.8335ZM10.2082 10.0002C10.2082 10.1152 10.1149 10.2085 9.99984 10.2085C9.88475 10.2085 9.7915 10.1152 9.7915 10.0002C9.7915 9.88508 9.88475 9.79183 9.99984 9.79183C10.1149 9.79183 10.2082 9.88508 10.2082 10.0002ZM14.3748 10.0002C14.3748 10.1152 14.2816 10.2085 14.1665 10.2085C14.0514 10.2085 13.9582 10.1152 13.9582 10.0002C13.9582 9.88508 14.0514 9.79183 14.1665 9.79183C14.2816 9.79183 14.3748 9.88508 14.3748 10.0002ZM6.0415 10.0002C6.0415 10.1152 5.94823 10.2085 5.83317 10.2085C5.71811 10.2085 5.62484 10.1152 5.62484 10.0002C5.62484 9.88508 5.71811 9.79183 5.83317 9.79183C5.94823 9.79183 6.0415 9.88508 6.0415 10.0002Z" stroke="#667085" stroke-width="2" stroke-linecap="round" stroke-linejoin="round"/>
</g>
</svg>
